<svg xmlns="http://www.w3.org/2000/svg" xmlns:xlink="http://www.w3.org/1999/xlink" viewBox="0,0,256,256" width="32px" height="32px" fill-rule="nonzero"><g fill="#179287" fill-rule="nonzero" stroke="none" stroke-width="1" stroke-linecap="butt" stroke-linejoin="miter" stroke-miterlimit="10" stroke-dasharray="" stroke-dashoffset="0" font-family="none" font-weight="none" font-size="none" text-anchor="none" style="mix-blend-mode: normal"><g transform="scale(8,8)"><path d="M21.11914,5.00195c-0.20737,-0.01941 -0.41737,0.09047 -0.51562,0.29297c-0.122,0.252 -0.02611,0.55841 0.21289,0.69141c3.065,1.72 5.14063,5.03284 5.14063,8.83984c0,4.269 -2.61455,7.92044 -6.31055,9.39844v-4.21875c0.641,-0.206 1.125,-0.8102 1.125,-1.5332c0,-0.599 -0.30725,-1.11648 -0.78125,-1.39648c0.375,-3.638 2.00781,-2.67989 2.00781,-3.83789v-0.67383c0,-1.739 -3.96727,-7.40316 -5.82227,-7.53516c-0.113,-0.009 -0.22675,-0.009 -0.34375,0c-1.86,0.137 -5.82617,5.79716 -5.82617,7.53516v0.67774c0,1.158 1.63977,0.19589 2.00977,3.83789c-0.478,0.279 -0.78125,0.79648 -0.78125,1.39648c0,0.723 0.47814,1.3272 1.11914,1.5332v4.21875c-3.697,-1.473 -6.31055,-5.12444 -6.31055,-9.39844c0,-3.802 2.07562,-7.11484 5.14063,-8.83984c0.244,-0.137 0.33489,-0.43941 0.21289,-0.69141c-0.131,-0.27 -0.45675,-0.37452 -0.71875,-0.22852c-3.385,1.9 -5.67773,5.55877 -5.67773,9.75977c0,5.248 3.57462,9.64694 8.39063,10.83594v-4.75977c0.343,0.114 0.68306,0.21116 1.03906,0.28516v5.66016c-5.859,-0.777 -10.39258,-5.86248 -10.39258,-12.02148c0,-1.501 0.27167,-2.94058 0.76367,-4.26758c0.099,-0.265 -0.0262,-0.55797 -0.2832,-0.66797c-0.271,-0.119 -0.58741,0.01678 -0.69141,0.30078c-0.533,1.441 -0.82617,3.00077 -0.82617,4.63477c0,7.097 5.53466,12.88592 12.47266,13.16992v-6.67578c0.307,0.018 0.67569,0.023 1.05469,0v6.66992c6.938,-0.279 12.47266,-6.06706 12.47266,-13.16406c0,-1.634 -0.29317,-3.19267 -0.82617,-4.63867c-0.104,-0.279 -0.42041,-0.42173 -0.69141,-0.30273c-0.257,0.11 -0.3832,0.40697 -0.2832,0.66797c0.492,1.327 0.76367,2.76853 0.76367,4.26953c0,6.159 -4.52858,11.24348 -10.39258,12.02148v-5.66016c0.357,-0.069 0.70106,-0.16616 1.03906,-0.28516v4.75977c4.816,-1.185 8.39063,-5.58694 8.39063,-10.83594c0,-4.201 -2.29273,-7.86077 -5.67773,-9.75977c-0.06425,-0.0365 -0.134,-0.05798 -0.20312,-0.06445zM12.8457,17.39063c0.591,0 1.06836,0.48498 1.06836,1.08398c0,0.594 -0.47236,1.08398 -1.06836,1.08398c-0.596,0 -1.07031,-0.48999 -1.07031,-1.08398c0,-0.594 0.47431,-1.08398 1.07031,-1.08398zM19.1543,17.39258c0.587,0 1.07031,0.47998 1.07031,1.08398c0,0.599 -0.47831,1.08398 -1.07031,1.08398c-0.587,0 -1.06836,-0.47998 -1.06836,-1.08398c0,-0.599 0.47736,-1.08398 1.06836,-1.08398z"></path></g></g></svg>